<?xml version="1.0" encoding="utf-8"?>
<svg width="88px" height="29px" viewBox="0 0 88 29" version="1.1" xmlns:xlink="http://www.w3.org/1999/xlink" xmlns="http://www.w3.org/2000/svg">
  <g id="SONY" fill="#FFFFFF">
    <path d="M1.05469 16.2578L1.05469 22.9023L2.70703 22.9023L3.23438 21.3906Q4.59375 22.3984 5.91797 22.8906Q7.24219 23.3828 8.58984 23.3828Q11.2617 23.3828 12.9375 21.9355Q14.6133 20.4883 14.6133 18.2031Q14.6133 16.2695 13.3359 15.0215Q12.0586 13.7734 9.48047 13.1875L6.23438 12.4375Q4.99219 12.1563 4.42969 11.6641Q3.86719 11.1719 3.86719 10.3516Q3.86719 9.37891 4.66406 8.83398Q5.46094 8.28906 6.91406 8.28906Q8.90625 8.28906 10.2246 9.49609Q11.543 10.7031 11.9531 12.8945L13.7813 12.8945L13.7813 6.80078L12.3398 6.80078L11.4961 7.97266Q10.418 7.12891 9.27539 6.72461Q8.13281 6.32031 6.82031 6.32031Q4.17188 6.32031 2.58984 7.69141Q1.00781 9.0625 1.00781 11.3359Q1.00781 13.2109 2.24414 14.3301Q3.48047 15.4492 6.29297 16.1055L8.90625 16.7148Q10.3359 17.043 10.9863 17.6172Q11.6367 18.1914 11.6367 19.1055Q11.6367 20.125 10.7871 20.6641Q9.9375 21.2031 8.33203 21.2031Q6.10547 21.2031 4.71094 19.9316Q3.31641 18.6602 2.92969 16.2578L1.05469 16.2578ZM22.7676 8.68164Q20.3242 11.0195 20.3242 14.8398Q20.3242 18.6602 22.7676 21.0098Q25.2109 23.3594 29.1953 23.3594Q33.1797 23.3594 35.6172 21.0156Q38.0547 18.6719 38.0547 14.8398Q38.0547 11.0195 35.623 8.68164Q33.1914 6.34375 29.1953 6.34375Q25.2109 6.34375 22.7676 8.68164ZM59.8438 22.9023L56.4501 22.9023L48.4414 9.77734L48.4414 19.5859Q48.4414 20.5703 48.6992 20.8223Q48.957 21.0742 50.0234 21.0742L51.125 21.0742L51.125 22.9023L43.2148 22.9023L43.2148 21.0742L44.3398 21.0742Q45.4063 21.0742 45.6641 20.8223Q45.9219 20.5703 45.9219 19.5859L45.9219 10.1055Q45.9219 9.12109 45.6641 8.86914Q45.4063 8.61719 44.3398 8.61719L43.3086 8.61719L43.3086 6.80078L50.1992 6.80078L57.3242 18.4844L57.3242 10.1055Q57.3242 9.12109 57.0664 8.86914Q56.8086 8.61719 55.7422 8.61719L54.6055 8.61719L54.6055 6.80078L62.2227 6.80078L62.2227 8.61719L61.4492 8.61719Q60.3711 8.61719 60.1074 8.875Q59.8438 9.13281 59.8438 10.1055L59.8438 22.9023ZM77.3965 20.8164Q77.1328 20.5586 77.1328 19.5859L77.1328 16.1641L81.9375 9.68359Q82.3828 9.05078 82.7754 8.83398Q83.168 8.61719 83.8008 8.61719L84.3516 8.61719L84.3516 6.80078L76.8867 6.80078L76.8867 8.61719L78.3047 8.61719Q78.7266 8.61719 78.9492 8.72852Q79.1719 8.83984 79.1719 9.05078Q79.1719 9.21484 79.1016 9.37305Q79.0313 9.53125 78.8555 9.77734L75.9844 13.6914L73.2656 9.91797Q73.1016 9.67188 73.0195 9.47852Q72.9375 9.28516 72.9375 9.12109Q72.9375 8.86328 73.1895 8.74023Q73.4414 8.61719 73.9922 8.61719L75.1641 8.61719L75.1641 6.80078L66.6445 6.80078L66.6445 8.61719L67.4414 8.61719Q68.0977 8.61719 68.6133 8.98047Q69.1289 9.34375 69.7617 10.2813L73.7461 16.1641L73.7461 19.5859Q73.7461 20.5703 73.4883 20.8223Q73.2305 21.0742 72.1641 21.0742L70.7695 21.0742L70.7695 22.9023L80.1328 22.9023L80.1328 21.0742L78.7383 21.0742Q77.6602 21.0742 77.3965 20.8164ZM25.457 19.6973Q24.1094 17.957 24.1094 14.8398Q24.1094 11.7227 25.457 9.99414Q26.8047 8.26563 29.1953 8.26563Q31.5977 8.26563 32.9336 9.99414Q34.2695 11.7227 34.2695 14.8398Q34.2695 17.9688 32.9277 19.7031Q31.5859 21.4375 29.1953 21.4375Q26.8047 21.4375 25.457 19.6973Z" />
  </g>
</svg>